<?xml version="1.0" encoding="UTF-8" standalone="no"?>
<!DOCTYPE svg PUBLIC "-//W3C//DTD SVG 1.1//EN" "http://www.w3.org/Graphics/SVG/1.1/DTD/svg11.dtd">
<svg width="100%" height="100%" viewBox="0 0 1277 270" version="1.1" xmlns="http://www.w3.org/2000/svg" xmlns:xlink="http://www.w3.org/1999/xlink" xml:space="preserve" xmlns:serif="http://www.serif.com/" style="fill-rule:evenodd;clip-rule:evenodd;stroke-linejoin:round;stroke-miterlimit:2;">
    <g transform="matrix(1,0,0,1,-82.689341,-194.815119)">
        <g transform="matrix(30.561203,0,0,30.561203,-2990.071204,-4571.606696)">
            <path d="M100.544,164.651L100.544,156.107L102.224,156.107L102.944,157.907L102.944,164.651L100.544,164.651ZM106.424,164.651L101.468,158.423L102.224,156.107L107.18,162.335L106.424,164.651ZM106.424,164.651L105.824,162.755L105.824,156.107L108.224,156.107L108.224,164.651L106.424,164.651Z" style="fill:rgb(19,27,29);fill-rule:nonzero;"/>
            <g transform="matrix(1,0,0,1,-0.425376,0)">
                <path d="M113.228,164.795C112.476,164.795 111.82,164.641 111.26,164.333C110.7,164.025 110.264,163.599 109.952,163.055C109.64,162.511 109.484,161.887 109.484,161.183L109.484,156.107L111.884,156.107L111.884,161.399C111.884,161.671 111.944,161.903 112.064,162.095C112.184,162.287 112.346,162.433 112.55,162.533C112.754,162.633 112.98,162.683 113.228,162.683C113.484,162.683 113.71,162.633 113.906,162.533C114.102,162.433 114.256,162.289 114.368,162.101C114.48,161.913 114.536,161.683 114.536,161.411L114.536,156.107L116.948,156.107L116.948,161.195C116.948,161.899 116.794,162.521 116.486,163.061C116.178,163.601 115.746,164.025 115.19,164.333C114.634,164.641 113.98,164.795 113.228,164.795Z" style="fill:rgb(19,27,29);fill-rule:nonzero;"/>
            </g>
            <g transform="matrix(1,0,0,1,-0.883473,0)">
                <path d="M119.816,164.651L119.816,162.611L121.808,162.611C122.256,162.611 122.644,162.529 122.972,162.365C123.3,162.201 123.552,161.951 123.728,161.615C123.904,161.279 123.992,160.863 123.992,160.367C123.992,159.871 123.902,159.459 123.722,159.131C123.542,158.803 123.29,158.557 122.966,158.393C122.642,158.229 122.256,158.147 121.808,158.147L119.696,158.147L119.696,156.107L121.808,156.107C122.48,156.107 123.098,156.207 123.662,156.407C124.226,156.607 124.716,156.895 125.132,157.271C125.548,157.647 125.87,158.097 126.098,158.621C126.326,159.145 126.44,159.731 126.44,160.379C126.44,161.027 126.326,161.613 126.098,162.137C125.87,162.661 125.548,163.111 125.132,163.487C124.716,163.863 124.228,164.151 123.668,164.351C123.108,164.551 122.496,164.651 121.832,164.651L119.816,164.651ZM118.208,164.651L118.208,156.107L120.608,156.107L120.608,164.651L118.208,164.651Z" style="fill:rgb(19,27,29);fill-rule:nonzero;"/>
            </g>
            <g transform="matrix(1,0,0,1,-0.981637,0)">
                <path d="M131.636,164.795C130.972,164.795 130.358,164.685 129.794,164.465C129.23,164.245 128.738,163.935 128.318,163.535C127.898,163.135 127.572,162.667 127.34,162.131C127.108,161.595 126.992,161.011 126.992,160.379C126.992,159.739 127.114,159.151 127.358,158.615C127.602,158.079 127.942,157.613 128.378,157.217C128.814,156.821 129.32,156.513 129.896,156.293C130.472,156.073 131.088,155.963 131.744,155.963C132.536,155.963 133.246,156.099 133.874,156.371C134.502,156.643 135.012,157.011 135.404,157.475L133.784,159.095C133.488,158.751 133.18,158.495 132.86,158.327C132.54,158.159 132.156,158.075 131.708,158.075C131.284,158.075 130.9,158.169 130.556,158.357C130.212,158.545 129.938,158.811 129.734,159.155C129.53,159.499 129.428,159.903 129.428,160.367C129.428,160.831 129.522,161.237 129.71,161.585C129.898,161.933 130.16,162.203 130.496,162.395C130.832,162.587 131.224,162.683 131.672,162.683C132.104,162.683 132.468,162.599 132.764,162.431C133.06,162.263 133.286,162.023 133.442,161.711C133.598,161.399 133.676,161.031 133.676,160.607L135.32,161.651L131.348,161.531L131.348,159.611L136.088,159.611L136.088,159.971C136.088,160.995 135.902,161.867 135.53,162.587C135.158,163.307 134.638,163.855 133.97,164.231C133.302,164.607 132.524,164.795 131.636,164.795Z" style="fill:rgb(19,27,29);fill-rule:nonzero;"/>
            </g>
            <g transform="matrix(1,0,0,1,-1.210685,0)">
                <path d="M136.988,164.651L136.988,156.107L139.388,156.107L139.388,164.651L136.988,164.651ZM138.932,164.651L138.932,162.659L143.516,162.659L143.516,164.651L138.932,164.651ZM138.932,161.267L138.932,159.323L143.072,159.323L143.072,161.267L138.932,161.267ZM138.932,158.099L138.932,156.107L143.444,156.107L143.444,158.099L138.932,158.099Z" style="fill:rgb(19,27,29);fill-rule:nonzero;"/>
            </g>
        </g>
    </g>
</svg>
